# xmcd
#
# Track frame offsets:
#  150
#  8394
#  17353
#  29862
#  40236
#  49365
#  57649
#  68138
#  79457
#  97231
#  110745
#  121519
#
# Disc length: 1808 seconds
#
# Revision: 0
# Processed by: cddbd v1.5.1PL2 Copyright (c) Steve Scherf et al.
# Submitted via: Collectorz.com_Music_Collector 6.9
#
DISCID=a2070e0c
DTITLE=Michael Deutsch - "Hook" Bops
DYEAR=1991
DGENRE=Blues
TTITLE0=Hook Bops
TTITLE1=Boogie Time
TTITLE2=The Blues Is All Around Me
TTITLE3=Stompin', Jumpin' and Swingin'
TTITLE4=Don't Get Around Much Anymore
TTITLE5=Ain't Nobody's Business
TTITLE6=F-Stop Boogie
TTITLE7=New Orleans Rag
TTITLE8=It's My Own Fault
TTITLE9=Going To Chicago
TTITLE10=Rock Me Baby
TTITLE11=Exit Stage Left
EXTD=
EXTT0=
EXTT1=
EXTT2=
EXTT3=
EXTT4=
EXTT5=
EXTT6=
EXTT7=
EXTT8=
EXTT9=
EXTT10=
EXTT11=
PLAYORDER=
